<?xml version="1.0" encoding="UTF-8"?> <svg xmlns="http://www.w3.org/2000/svg" height="512" viewBox="0 -22 512 512" width="512"><path d="M85.703 68.766c-.96-22.078-19.637-39.195-41.71-38.234S4.797 50.172 5.758 72.246s19.637 39.195 41.715 38.234 39.19-19.637 38.23-41.715zm0 0" fill="#fee063"></path><path d="M41.277 72.242c-.71-16.32 8.465-30.773 22.215-37.594-5.855-2.9-12.508-4.422-19.5-4.12-22.078.965-39.19 19.64-38.23 41.715s19.637 39.19 41.71 38.23c5.754-.254 11.168-1.715 16.016-4.12-12.625-6.27-21.55-19.03-22.21-34.11zm0 0" fill="#f9d021"></path><path d="M416.75 236.62a6.33 6.33 0 0 1 .512 8.199L390.5 280.5v39.88a6.35 6.35 0 0 1-2.48 5.02L356.5 349.5l-10 52-58.77 36.53c-6.64 4.13-15.23-.652-15.23-8.473V91.87c0-12.793 14.69-19.992 24.8-12.172l37.2 28.8 5 39 46.03 18.4c2.398.96 3.97 3.29 3.97 5.87v36.72zm0 0" fill="#76b1cb"></path><path d="M313.898 279.73l-.398-.23 28-38 77.012.02a6.36 6.36 0 0 1-1.25 3.301L390.5 280.5v39.88a6.17 6.17 0 0 1-.641 2.75zm0 0" fill="#579ab2"></path><path d="M417.5 241.5h-76l48-33 27.25 28.12a6.34 6.34 0 0 1 1.762 4.898zm-61 108l-10 52-58.77 36.53c-6.64 4.13-15.23-.652-15.23-8.473v-79.72zm0 0" fill="#439fbf"></path><path d="M306.5 200.5l35 41-28 38 .398.23-41.398 15.78v-134.84zm0 0" fill="#438fa3"></path><path d="M341.078 148.13L306.5 200.5l-34-39.828 62-52.172 5 39zm0 0" fill="#439fbf"></path><path d="M272.5 91.87c0-12.793 14.69-19.992 24.8-12.172l37.2 28.8-62 52.172zm0 0" fill="#579ab2"></path><path d="M240.5 91.87V429.56c0 7.82-8.6 12.602-15.23 8.473L166.5 401.5l-10-52-31.52-24.102a6.35 6.35 0 0 1-2.48-5.02V280.5l-26.762-35.68a6.33 6.33 0 0 1 .512-8.199l27.25-28.12v-36.72c0-2.582 1.57-4.9 3.97-5.87l46.03-18.4 5-39 37.2-28.8c10.11-7.82 24.8-.62 24.8 12.172zm0 0" fill="#a6a6a6"></path><path d="M504.5 392.79v39.422a6.28 6.28 0 0 1-6.289 6.289H458.79a6.28 6.28 0 0 1-6.289-6.289V392.79a6.28 6.28 0 0 1 6.289-6.289h39.422a6.28 6.28 0 0 1 6.289 6.289zm0 0" fill="#fee063"></path><path d="M145.5 431.82v22.36a6.32 6.32 0 0 1-6.32 6.32H30.82a6.32 6.32 0 0 1-6.32-6.32v-22.36a6.32 6.32 0 0 1 6.32-6.32h108.36a6.32 6.32 0 0 1 6.32 6.32zm307-404.32h-41.7a6.28 6.28 0 0 0-6.289 6.289v67.422a6.28 6.28 0 0 0 6.289 6.289h67.422a6.28 6.28 0 0 0 6.289-6.289V27.5zm0 0" fill="#75dbad"></path><g fill="#15ce71"><path d="M437 27.5v37.46c0 5.555 4.484 10.04 10.04 10.04h37.46V27.5zm0 0"></path><path d="M504.5 13.79V53.21a6.28 6.28 0 0 1-6.289 6.289H458.79a6.28 6.28 0 0 1-6.289-6.289V13.79a6.28 6.28 0 0 1 6.289-6.289h39.422a6.28 6.28 0 0 1 6.289 6.289zm0 0"></path></g><path d="M216.5 338.5c0 6.074-4.926 11-11 11s-11-4.926-11-11 4.926-11 11-11 11 4.926 11 11zm-6-166c0 6.074-4.926 11-11 11s-11-4.926-11-11 4.926-11 11-11 11 4.926 11 11zm-17 68c0 7.73-6.27 14-14 14s-14-6.27-14-14 6.27-14 14-14 14 6.27 14 14zm0 0" fill="#000"></path><path d="M398 320.375V283l25.262-33.684c4.102-5.47 3.63-13-1.13-17.9L397 205.465V171.78c0-5.687-3.4-10.723-8.687-12.836l-41.934-16.77-4.44-34.63a7.48 7.48 0 0 0-2.848-4.977L301.896 73.77a22.73 22.73 0 0 0-24.086-2.453c-7.904 3.878-12.8 11.753-12.8 20.55v337.695c0 6.34 3.44 12.2 8.984 15.27 2.64 1.47 5.563 2.2 8.484 2.2a17.43 17.43 0 0 0 9.223-2.633l58.77-36.527a7.51 7.51 0 0 0 3.402-4.957l9.46-49.2 29.25-22.367c3.398-2.598 5.426-6.703 5.426-10.98zM384.5 276a7.51 7.51 0 0 0-1.5 4.5v30.074l-58.465-33.406L345.3 249h59.46zm-76.12-2.195L280 284.62V181.008l51.934 60.836zM328.8 123.1l3.223 25.137-26.297 39.824-22.625-26.504zm59.715 95.184L403.762 234H365.65zM382 204.555l-39.184 26.938-26.95-31.57 28.105-42.555 38.03 15.2zM284.414 84.8a7.9 7.9 0 0 1 3.504-.832c1.7 0 3.36.566 4.793 1.676l29.852 23.1L280 144.555V91.867c0-3.078 1.648-5.723 4.414-7.078zm-.64 346.87c-1.074.668-2.027.324-2.504.063s-1.27-.895-1.27-2.16V357.3l19.53-.082a7.5 7.5 0 0 0 7.469-7.527c-.016-4.133-3.37-7.473-7.5-7.473h-.03l-19.47.078v-41.63L313.258 288l63.7 36.406-23.02 17.605-24.477.098a7.5 7.5 0 0 0-7.473 7.527c.02 4.133 3.37 7.473 7.5 7.473h.03l17.883-.074-7.66 39.828zM235.2 71.32a22.73 22.73 0 0 0-24.086 2.453L173.9 102.57c-1.57 1.215-2.598 3.004-2.848 4.977l-4.44 34.63-41.934 16.77A13.76 13.76 0 0 0 116 171.781v33.684l-25.133 25.94a13.76 13.76 0 0 0-1.129 17.91L115 283v37.375c0 2.56.738 5.05 2.05 7.2l-60.738 60.738a7.5 7.5 0 0 0-2.199 5.301V418H30.82A13.84 13.84 0 0 0 17 431.82v22.36A13.84 13.84 0 0 0 30.82 468h108.36A13.84 13.84 0 0 0 153 454.18v-22.36A13.84 13.84 0 0 0 139.18 418H69.113v-21.277L128.4 337.45l21.285 16.273 9.457 49.195a7.5 7.5 0 0 0 3.406 4.953l58.77 36.53a17.46 17.46 0 0 0 9.223 2.629c2.922 0 5.848-.73 8.488-2.2a17.48 17.48 0 0 0 8.98-15.27v-209.8a7.5 7.5 0 1 0-15 0V233h-33.38a21.56 21.56 0 0 0-9.21-10.992l9.625-31.035c8.22-.238 15.098-5.848 17.25-13.44L233 169.855v19.895a7.5 7.5 0 1 0 15 0V91.867a22.73 22.73 0 0 0-12.81-20.547zM138 453H32v-20h106zm-9.113-239.28A7.5 7.5 0 0 0 131 208.5v-35.922l40.762-16.305 10.324 10.047c-.7 1.938-1.086 4.012-1.086 6.18 0 4.934 1.953 9.4 5.1 12.73l-10.6 34.152c-7.453 1.402-13.54 6.66-16.14 13.617h-49.172zM179.5 234c3.586 0 6.5 2.914 6.5 6.5s-2.914 6.5-6.5 6.5-6.5-2.914-6.5-6.5 2.914-6.5 6.5-6.5zm-72 14h51.88a21.56 21.56 0 0 0 14.3 13.18l19.227 63.805c-2.68 2.5-4.62 5.777-5.45 9.477l-29.227 6.922-28.23-21.6V280.5a7.51 7.51 0 0 0-1.5-4.5zm98 87c1.93 0 3.5 1.57 3.5 3.5s-1.57 3.5-3.5 3.5-3.5-1.57-3.5-3.5 1.57-3.5 3.5-3.5zm-32.254 61.863l-8.023-41.723 25.195-5.965c3.195 4.504 8.352 7.508 14.215 7.78l17.6 70.348zM233 408.578l-14.3-57.152c3.266-3.34 5.3-7.898 5.3-12.926 0-9.66-7.45-17.605-16.902-18.418l-18.168-60.3c4.9-2.4 8.762-6.63 10.7-11.793H233zM199.5 176c-1.93 0-3.5-1.57-3.5-3.5s1.57-3.5 3.5-3.5 3.5 1.57 3.5 3.5-1.57 3.5-3.5 3.5zm15.266-13.93c-3.336-4.867-8.93-8.07-15.266-8.07a18.31 18.31 0 0 0-7.105 1.426l-10.98-10.687 4.13-32.207 34.742-26.898c2.434-1.883 5.54-2.2 8.3-.844s4.414 4 4.414 7.078v61.297zM51 71a7.5 7.5 0 0 0 7.5 7.5h35.395l52.3 52.305a7.48 7.48 0 0 0 10.609 0 7.51 7.51 0 0 0 0-10.609l-54.5-54.5C100.898 64.3 98.988 63.5 97 63.5H58.5A7.5 7.5 0 0 0 51 71zm28.887 29.297a7.5 7.5 0 0 0-.75-10.578c-3.133-2.715-7.867-2.38-10.582.75A30.51 30.51 0 0 1 45.5 101C28.684 101 15 87.316 15 70.5S28.684 40 45.5 40c9.434 0 18.188 4.266 24.016 11.695a7.5 7.5 0 0 0 11.805-9.254C72.63 31.355 59.57 25 45.5 25 20.4 25 0 45.4 0 70.5S20.4 116 45.5 116c13.2 0 25.73-5.723 34.387-15.703zM498.215 379h-39.43c-7.602 0-13.785 6.184-13.785 13.785V405.5h-20.895l-41.3-41.305a7.51 7.51 0 0 0-10.609 0 7.51 7.51 0 0 0 0 10.609l43.5 43.5c1.406 1.406 3.316 2.195 5.305 2.195h24v11.715c0 7.602 6.184 13.785 13.785 13.785h39.43c7.602 0 13.785-6.184 13.785-13.785v-39.43c0-7.602-6.184-13.785-13.785-13.785zM497 431h-37v-37h37zm1.215-431h-39.43C451.184 0 445 6.184 445 13.785V20h-34.215C403.184 20 397 26.184 397 33.785v67.43c0 7.602 6.184 13.785 13.785 13.785H437v20.395l-25.805 25.8a7.51 7.51 0 0 0 0 10.609 7.48 7.48 0 0 0 10.609 0l28-28c1.406-1.406 2.195-3.316 2.195-5.305V115h26.215c7.602 0 13.785-6.184 13.785-13.785V67h6.215C505.816 67 512 60.816 512 53.215v-39.43C512 6.184 505.816 0 498.215 0zM477 100h-65V35h33v18.215c0 7.6 6.184 13.785 13.785 13.785H477zm20-48h-37V15h37zm0 0"></path></svg> 